<svg width="49" height="48" viewBox="0 0 49 48" fill="none" xmlns="http://www.w3.org/2000/svg">
<g filter="url(#filter0_d_2_9)">
<rect x="4" y="1" width="41" height="39" rx="19.5" fill="#3CA2EC"/>
</g>
<path d="M23.556 35.392C22.116 35.392 20.832 34.648 19.704 33.16C18.168 33.616 16.764 33.844 15.492 33.844C14.1 33.844 13.008 33.58 12.216 33.052C11.424 32.548 11.028 31.912 11.028 31.144C11.028 30.544 11.28 29.896 11.784 29.2C12.288 28.504 13.068 27.82 14.124 27.148C14.556 26.884 15.024 26.62 15.528 26.356C16.056 26.092 16.62 25.852 17.22 25.636C17.148 24.868 17.112 24.052 17.112 23.188C17.112 21.22 17.328 19.06 17.76 16.708C18.192 14.332 18.912 11.776 19.92 9.04C18.144 9.928 16.512 10.984 15.024 12.208C13.536 13.408 12.384 14.644 11.568 15.916C11.304 16.348 10.98 16.564 10.596 16.564C10.332 16.564 10.2 16.432 10.2 16.168C10.2 15.976 10.308 15.688 10.524 15.304C10.716 14.92 11.064 14.44 11.568 13.864C12.528 12.76 13.776 11.692 15.312 10.66C16.848 9.628 18.528 8.74 20.352 7.996C20.76 6.868 21.228 5.764 21.756 4.684C21.9 4.372 22.116 4.216 22.404 4.216C22.596 4.216 22.752 4.288 22.872 4.432C23.016 4.552 23.088 4.708 23.088 4.9C23.088 4.996 23.064 5.116 23.016 5.26C22.872 5.596 22.728 5.932 22.584 6.268C22.464 6.604 22.344 6.94 22.224 7.276C22.56 7.156 22.908 7.048 23.268 6.952C23.628 6.856 23.976 6.76 24.312 6.664C26.184 6.232 27.852 6.016 29.316 6.016C31.236 6.016 32.82 6.34 34.068 6.988C35.316 7.636 36.24 8.524 36.84 9.652C37.44 10.756 37.74 12.016 37.74 13.432C37.74 14.896 37.428 16.444 36.804 18.076C36.204 19.708 35.316 21.352 34.14 23.008C32.964 24.64 31.5 26.188 29.748 27.652C28.02 29.116 26.04 30.412 23.808 31.54C22.632 32.116 21.516 32.584 20.46 32.944C21.036 33.544 21.624 33.964 22.224 34.204C22.824 34.444 23.316 34.564 23.7 34.564C24.036 34.564 24.276 34.492 24.42 34.348C24.636 34.108 24.864 33.988 25.104 33.988C25.272 33.988 25.416 34.036 25.536 34.132C25.656 34.228 25.716 34.336 25.716 34.456C25.716 34.648 25.56 34.828 25.248 34.996C24.96 35.14 24.672 35.236 24.384 35.284C24.096 35.356 23.82 35.392 23.556 35.392ZM20.1 32.512C20.652 32.32 21.228 32.08 21.828 31.792C22.452 31.528 23.088 31.204 23.736 30.82C26.448 29.26 28.692 27.508 30.468 25.564C32.268 23.596 33.612 21.604 34.5 19.588C35.412 17.572 35.868 15.7 35.868 13.972C35.868 11.908 35.244 10.216 33.996 8.896C32.748 7.552 30.876 6.88 28.38 6.88C27.18 6.88 25.824 7.06 24.312 7.42C23.904 7.516 23.496 7.636 23.088 7.78C22.68 7.9 22.272 8.044 21.864 8.212C20.4 12.052 19.392 15.376 18.84 18.184C18.288 20.968 18.024 23.344 18.048 25.312C19.224 24.904 20.484 24.58 21.828 24.34C23.196 24.1 24.612 23.98 26.076 23.98C26.34 23.98 26.604 23.992 26.868 24.016C27.156 24.016 27.444 24.028 27.732 24.052C28.044 24.076 28.2 24.148 28.2 24.268C28.2 24.46 27.84 24.556 27.12 24.556C26.808 24.556 26.484 24.544 26.148 24.52C25.836 24.496 25.524 24.484 25.212 24.484C23.868 24.484 22.584 24.616 21.36 24.88C20.136 25.144 19.032 25.48 18.048 25.888C18.12 27.496 18.348 28.84 18.732 29.92C19.116 30.976 19.572 31.84 20.1 32.512ZM16.5 33.16C17.34 33.16 18.3 33.016 19.38 32.728C18.876 31.96 18.432 31.036 18.048 29.956C17.688 28.852 17.424 27.604 17.256 26.212C16.104 26.788 15.168 27.4 14.448 28.048C13.896 28.528 13.488 29.008 13.224 29.488C12.96 29.968 12.828 30.412 12.828 30.82C12.828 31.492 13.152 32.044 13.8 32.476C14.448 32.932 15.348 33.16 16.5 33.16Z" fill="#074877"/>
<defs>
<filter id="filter0_d_2_9" x="0" y="1" width="49" height="47" filterUnits="userSpaceOnUse" color-interpolation-filters="sRGB">
<feFlood flood-opacity="0" result="BackgroundImageFix"/>
<feColorMatrix in="SourceAlpha" type="matrix" values="0 0 0 0 0 0 0 0 0 0 0 0 0 0 0 0 0 0 127 0" result="hardAlpha"/>
<feOffset dy="4"/>
<feGaussianBlur stdDeviation="2"/>
<feComposite in2="hardAlpha" operator="out"/>
<feColorMatrix type="matrix" values="0 0 0 0 0.0469792 0 0 0 0 0.111812 0 0 0 0 0.341667 0 0 0 0.22 0"/>
<feBlend mode="normal" in2="BackgroundImageFix" result="effect1_dropShadow_2_9"/>
<feBlend mode="normal" in="SourceGraphic" in2="effect1_dropShadow_2_9" result="shape"/>
</filter>
</defs>
</svg>
